PathFileType	4	(X/Y/Z)	./resultDataOpenSim/trcMotMarkerGrf/sub10/qtm-02-04.trc
DataRate	CameraRate	NumFrames	NumMarkers	Units	OrigDataRate	OrigDataStartFrame	OrigNumFrames
250.000000	250.000000	13	24	m	250.000000	368	490
Frame#	Time	L.Toe.Tip			R.Toe.Tip			L.Ankle.Lat			R.Ankle.Lat			L.Ankle.Med			R.Ankle.Med			L.Heel			R.Heel			L.Knee.Lat			R.Knee.Lat			L.Knee.Med			R.Knee.Med			L.Thigh.Upper			R.Thigh.Upper			L.ASIS			R.ASIS			V.Sacral			L.Acromium			R.Acromium			C7			L.Elbow			R.Elbow			L.Wrist.Lat			R.Wrist.Lat
		X1	Y1	Z1	X2	Y2	Z2	X3	Y3	Z3	X4	Y4	Z4	X5	Y5	Z5	X6	Y6	Z6	X7	Y7	Z7	X8	Y8	Z8	X9	Y9	Z9	X10	Y10	Z10	X11	Y11	Z11	X12	Y12	Z12	X13	Y13	Z13	X14	Y14	Z14	X15	Y15	Z15	X16	Y16	Z16	X17	Y17	Z17	X18	Y18	Z18	X19	Y19	Z19	X20	Y20	Z20	X21	Y21	Z21	X22	Y22	Z22	X23	Y23	Z23	X24	Y24	Z24

368	1.468	0.67151518	0.074815129	-0.14110969	0.85167035	0.038628348	0.03258611	0.58888137	0.18149814	-0.15278641	0.70973318	0.054637743	0.069937018	0.62174642	0.18548108	-0.073874427	0.72931233	0.08042049	-0.014257872	0.52414042	0.19423036	-0.10016653	0.65637456	0.030610477	0.025502456	0.84572621	0.46158915	-0.18269019	0.7872254	0.44954967	0.10106361	0.87082757	0.43126489	-0.06458251	0.78994236	0.45552834	-0.026605878	0.74236976	0.82781727	-0.21532515	0.75801134	0.86523586	0.16184844	0.79975615	0.94770557	-0.16075057	0.81880314	0.9652032	0.083044769	0.61062294	0.95876189	-0.021070049	0.74948297	1.4273909	-0.17986261	0.71769858	1.4141082	0.14157429	0.65204169	1.4478571	-0.030383378	0.65219651	1.1006164	-0.26688709	0.61303884	1.0753031	0.18067423	0.80362075	0.90483945	-0.28023997	0.74288015	0.88532057	0.26487306
369	1.472	0.68929113	0.073812302	-0.14114788	0.85170827	0.038618118	0.032576987	0.60364341	0.17803569	-0.15226578	0.70959635	0.054765415	0.069951441	0.63666232	0.1825535	-0.073407117	0.72954028	0.080489257	-0.014352026	0.538586	0.18895564	-0.099688137	0.65653362	0.03075052	0.025355263	0.85549326	0.46358061	-0.18157333	0.78828157	0.44954597	0.10135734	0.88028545	0.43365988	-0.063421492	0.79110403	0.45541013	-0.026117738	0.74972179	0.82915607	-0.21534644	0.76262655	0.86545164	0.16174276	0.80593034	0.94891048	-0.16010564	0.82376804	0.96552596	0.083656846	0.6166005	0.95923428	-0.021951313	0.75469977	1.4281026	-0.17983195	0.72262423	1.4150746	0.14156961	0.6572585	1.4485548	-0.030352188	0.65649893	1.10185	-0.26657762	0.6196051	1.0753769	0.18248082	0.80503182	0.90412241	-0.28155865	0.75383346	0.88741091	0.26506474
370	1.476	0.70715387	0.072784916	-0.14125302	0.85175696	0.038603847	0.032564674	0.61853929	0.17448934	-0.15173542	0.70944791	0.054896332	0.069970302	0.65158925	0.17953992	-0.072893875	0.72981265	0.080545857	-0.014463843	0.55320366	0.18360544	-0.099251119	0.65682962	0.030937331	0.025184157	0.8651166	0.46545287	-0.1805192	0.78930524	0.44954555	0.10167199	0.88976876	0.43594932	-0.062306438	0.79218858	0.45525119	-0.025738838	0.75680688	0.83039832	-0.21565455	0.76721486	0.86565848	0.16163576	0.81214367	0.95003537	-0.15949299	0.82873566	0.96578876	0.084240647	0.62246219	0.95969941	-0.022852199	0.75991026	1.4287287	-0.17980002	0.72755389	1.4159735	0.14155531	0.66247094	1.4491754	-0.030227819	0.66080852	1.1029806	-0.26623215	0.6259221	1.0754014	0.18448334	0.80653325	0.9034099	-0.28285574	0.76477329	0.88949813	0.26521311
371	1.48	0.72502504	0.071761359	-0.14137648	0.85180439	0.038582533	0.032551344	0.63357282	0.17087245	-0.15119963	0.70936551	0.055011509	0.069971016	0.66654476	0.17645457	-0.072340677	0.73002045	0.080586419	-0.014562995	0.56800606	0.17819039	-0.098830924	0.65720252	0.031178069	0.025029305	0.87460164	0.46722263	-0.17953868	0.79030093	0.44955102	0.10200598	0.89931302	0.43812421	-0.061232969	0.79316059	0.45508327	-0.025515836	0.76384246	0.83158903	-0.21614363	0.77176754	0.86584699	0.1615298	0.8184162	0.95109363	-0.15890888	0.83370604	0.96599673	0.084794004	0.62813966	0.96016348	-0.023744577	0.76511606	1.4292777	-0.17976893	0.73250363	1.4168149	0.14153794	0.66767643	1.4497366	-0.030064755	0.66509116	1.1040956	-0.26599399	0.63228168	1.0754491	0.1864979	0.80799646	0.90271175	-0.28411092	0.77569401	0.89158099	0.26531957
372	1.484	0.74288158	0.070760618	-0.14148586	0.85183518	0.038552622	0.032542187	0.64872683	0.16719639	-0.15065821	0.7093685	0.05510519	0.069947205	0.6814248	0.17333726	-0.071705704	0.73005419	0.080622752	-0.014606076	0.58304442	0.1726705	-0.098354132	0.65754017	0.031458123	0.024907659	0.88396024	0.46889721	-0.17862273	0.79127276	0.44956042	0.10235601	0.90880322	0.44018322	-0.060216241	0.79404585	0.45495361	-0.025391539	0.77107229	0.83273981	-0.21658647	0.77628581	0.86602178	0.1614263	0.82475507	0.95208335	-0.15834775	0.83867795	0.96615219	0.085314018	0.63372213	0.96059478	-0.024653719	0.77032375	1.4297492	-0.1797402	0.73748052	1.4176005	0.14152064	0.67287863	1.4502533	-0.029943158	0.66934321	1.1052142	-0.26589143	0.63890215	1.0754963	0.18838068	0.80935888	0.90202816	-0.28533942	0.78659943	0.89366214	0.26538665
373	1.488	0.76073404	0.069775199	-0.14157633	0.85184504	0.038515131	0.032538718	0.66398564	0.16346184	-0.15011137	0.70941832	0.055188	0.069908858	0.69613865	0.17023125	-0.070948941	0.72994118	0.080680261	-0.0145916	0.59839121	0.16697582	-0.097713633	0.65773974	0.031728852	0.024802754	0.89320242	0.47046478	-0.17775156	0.79222666	0.44957099	0.10271983	0.91793154	0.44212218	-0.05933864	0.79488881	0.45490504	-0.025279722	0.77844305	0.83382315	-0.21692277	0.78077168	0.86619077	0.16132631	0.83117155	0.95299122	-0.15780976	0.84364566	0.96625621	0.085800161	0.63929579	0.9609779	-0.025614946	0.77554361	1.4301339	-0.17970848	0.74247682	1.4183199	0.14150095	0.67808318	1.4507113	-0.029891715	0.67357852	1.1062948	-0.2658598	0.64586805	1.0754703	0.19009937	0.8106519	0.90135064	-0.28656233	0.79749517	0.89574279	0.26541698
374	1.492	0.77857621	0.068776598	-0.14165807	0.85184503	0.038467534	0.032533854	0.67935527	0.15967047	-0.14956498	0.70947451	0.055272754	0.069866509	0.710782	0.16714197	-0.070102336	0.72980671	0.080775537	-0.014560548	0.61408515	0.16108996	-0.096867618	0.6578167	0.031946783	0.024718312	0.9023328	0.47191004	-0.17690655	0.7931718	0.44958072	0.10309489	0.92630035	0.44392429	-0.058771612	0.79579628	0.45495425	-0.025095404	0.78577379	0.8348123	-0.21720652	0.78522182	0.86635447	0.16123028	0.83764939	0.95380528	-0.15728754	0.84860682	0.96631162	0.086260261	0.64486778	0.96133779	-0.026625339	0.78077707	1.430429	-0.17967201	0.74748072	1.4189608	0.14147598	0.68329296	1.4510854	-0.02988874	0.67781003	1.1072955	-0.26584	0.65314841	1.0753512	0.19171276	0.81191923	0.900668	-0.28778027	0.80837603	0.8978192	0.26541387
375	1.496	0.79639171	0.067748233	-0.14173887	0.85184979	0.038401468	0.03251778	0.69484943	0.1558409	-0.14902205	0.70952071	0.055366516	0.069824187	0.72559183	0.16403289	-0.069266998	0.72974411	0.080906401	-0.014541977	0.63002236	0.15512837	-0.095919096	0.65790227	0.032108101	0.024722769	0.911351	0.47323806	-0.17607884	0.79411821	0.44958985	0.10347911	0.93381123	0.44558365	-0.058603289	0.79694804	0.45505299	-0.024768169	0.79299514	0.83570853	-0.21746233	0.78963232	0.86650572	0.1611388	0.84408158	0.95452093	-0.15675972	0.85356449	0.96632186	0.086707501	0.65041132	0.96170034	-0.027641526	0.78601223	1.4306419	-0.17963872	0.7524859	1.4195182	0.14144808	0.68850578	1.4513693	-0.029907921	0.68204262	1.1081984	-0.26581901	0.66065154	1.0751761	0.1932893	0.81315935	0.89997206	-0.28897643	0.81922777	0.89988445	0.26538001
376	1.5	0.81421213	0.06672529	-0.14180949	0.85187183	0.038320206	0.032486785	0.71048271	0.15199129	-0.14848545	0.70955528	0.055472429	0.069781529	0.74073589	0.16086948	-0.068527146	0.72978699	0.081061439	-0.014525396	0.64598657	0.14928118	-0.095032911	0.65810173	0.03223246	0.024873815	0.92024949	0.47446847	-0.1752732	0.7950743	0.44959838	0.10387149	0.94115061	0.44714141	-0.058575713	0.79840623	0.45510349	-0.024317319	0.80015296	0.83652732	-0.21768523	0.7940077	0.86663535	0.16104954	0.85035466	0.95514043	-0.15621766	0.85851771	0.9662893	0.087149227	0.65592346	0.96204313	-0.028627041	0.79123545	1.4307743	-0.17961375	0.75749054	1.4199905	0.14142214	0.69371654	1.451572	-0.029933136	0.68627233	1.109002	-0.26580419	0.66827544	1.0749759	0.19482064	0.81433626	0.89925936	-0.29012849	0.83004196	0.90193282	0.2653159
377	1.504	0.83212763	0.065779859	-0.14184664	0.85191886	0.038247509	0.032447928	0.72627556	0.14811523	-0.14796738	0.709581	0.055591681	0.069735793	0.75623426	0.15764625	-0.067897627	0.72996902	0.081229599	-0.014497839	0.66185172	0.14364516	-0.094281426	0.65837806	0.032341555	0.025097064	0.92901396	0.47560869	-0.17450532	0.79604761	0.44960089	0.10427174	0.94953092	0.44868215	-0.058206408	0.80002619	0.45504912	-0.023848914	0.80729233	0.83727304	-0.2178799	0.79837323	0.86674112	0.1609595	0.85650065	0.95567119	-0.15567805	0.86345904	0.96621417	0.087581517	0.66142346	0.96230477	-0.029588774	0.79644251	1.4308188	-0.1795956	0.76249725	1.4203785	0.14139941	0.69892424	1.4517007	-0.029955477	0.69048951	1.1097095	-0.26579758	0.67594944	1.0747383	0.19624258	0.81542771	0.89853385	-0.29122755	0.8408207	0.90395978	0.26522038
378	1.508	0.85021607	0.064957569	-0.14183598	0.85198476	0.038203868	0.032414956	0.74224855	0.14419911	-0.14747946	0.70960394	0.055721443	0.06968295	0.77203098	0.15437118	-0.067349583	0.7302482	0.081397854	-0.014486853	0.67768828	0.13815012	-0.093630789	0.65860311	0.032449082	0.025225138	0.93763206	0.47665496	-0.1737913	0.79704231	0.44959204	0.10467715	0.95956348	0.45025046	-0.057272923	0.80166888	0.45491748	-0.023429596	0.81443131	0.8379378	-0.21805233	0.80276363	0.86683153	0.16087306	0.8626502	0.95611659	-0.15515384	0.86838191	0.96609104	0.087996433	0.66692623	0.96242858	-0.030572716	0.80163827	1.4307725	-0.17958449	0.76751328	1.4206865	0.14137777	0.70413128	1.4517569	-0.029976293	0.6946894	1.1103267	-0.26579853	0.68366199	1.0744277	0.19753803	0.81646033	0.8978052	-0.29228884	0.85157035	0.905962	0.26509231
379	1.512	0.86849034	0.064248905	-0.14178608	0.85205101	0.038187783	0.032397846	0.75840237	0.14025677	-0.14701858	0.70963234	0.055852104	0.069618783	0.78805004	0.15105795	-0.066846747	0.73040193	0.081552132	-0.014546095	0.69365848	0.13266566	-0.093026907	0.65869961	0.03255023	0.025164142	0.94610686	0.47760548	-0.17313813	0.79805916	0.44957324	0.10508006	0.97051495	0.45174137	-0.056029352	0.80332052	0.45475838	-0.023052646	0.82161972	0.83851932	-0.21821211	0.80715523	0.8669039	0.16080229	0.86887648	0.95647119	-0.15464263	0.87328598	0.96591224	0.088393989	0.67243947	0.96238332	-0.031640655	0.80682981	1.4306427	-0.17958051	0.77254396	1.4209189	0.14135523	0.70933654	1.4517392	-0.030002627	0.69888005	1.1108608	-0.2658124	0.69141499	1.0740186	0.19876818	0.81751238	0.89707544	-0.29334173	0.86229671	0.90793973	0.26493344
380	1.516	0.88691089	0.063620762	-0.14170811	0.85210365	0.038189937	0.032400073	0.77469218	0.13633221	-0.14656817	0.70967172	0.055972119	0.069541069	0.80419529	0.14774584	-0.06636306	0.73026852	0.081694956	-0.014683165	0.70987333	0.12712695	-0.092431822	0.65869163	0.032638796	0.024958526	0.95445482	0.47845287	-0.1725429	0.79910417	0.44954679	0.1054725	0.98100533	0.45294527	-0.054903344	0.80499589	0.45458505	-0.022707689	0.82891767	0.83902477	-0.21838409	0.81143187	0.86692397	0.1607599	0.8751584	0.95673212	-0.15414921	0.87817588	0.96567783	0.088783151	0.67796844	0.9621637	-0.032837473	0.81202222	1.4304378	-0.17958095	0.77758838	1.4210744	0.14133152	0.71453844	1.4516444	-0.030035679	0.70307586	1.1113148	-0.26585242	0.69915075	1.0735151	0.19999567	0.81867184	0.89633465	-0.29441237	0.87300157	0.90989412	0.2647473
